<?xml version="1.0" encoding="UTF-8" standalone="no"?><!DOCTYPE svg PUBLIC "-//W3C//DTD SVG 1.1//EN" "http://www.w3.org/Graphics/SVG/1.1/DTD/svg11.dtd"><svg width="100%" height="100%" viewBox="0 0 3280 960" version="1.1" xmlns="http://www.w3.org/2000/svg" xmlns:xlink="http://www.w3.org/1999/xlink" xml:space="preserve" xmlns:serif="http://www.serif.com/" style="fill-rule:evenodd;clip-rule:evenodd;stroke-linejoin:round;stroke-miterlimit:2;"><rect id="Logo-v2" serif:id="Logo v2" x="-0" y="-0" width="3280" height="960" style="fill:none;"/><clipPath id="_clip1"><rect x="-0" y="-0" width="3280" height="960"/></clipPath><g clip-path="url(#_clip1)"><path d="M3280,0l-3280,0l0,960l3280,-0l-0,-960Zm-2.833,2.833l-0,954.334c-0,-0 -3274.33,-0 -3274.33,-0c0,-0 0,-897.352 0,-954.334c0,0 3274.33,0 3274.33,0l-0,0Z" style="fill:#5a5a5a;"/><rect x="-0" y="0" width="3280" height="960" style="fill:#ec1d24;"/><g transform="matrix(1,0,0,1,-1237.56,-2578.13)"><g transform="matrix(937.838,0,0,937.838,1332,3408)"><path d="M0.024,-0l0.158,-0l-0,-0.32l0.102,-0l-0,-0.126l-0.102,0l-0,-0.158l0.134,-0l-0,-0.136l-0.292,0l0,0.74Z" style="fill:#fefefe;fill-rule:nonzero;"/></g><g transform="matrix(937.838,0,0,937.838,1611.48,3408)"><path d="M0.205,0.007c0.13,-0 0.194,-0.101 0.194,-0.377c-0,-0.276 -0.064,-0.377 -0.194,-0.377c-0.131,0 -0.194,0.101 -0.194,0.377c0,0.276 0.063,0.377 0.194,0.377Zm-0,-0.14c-0.031,0 -0.032,-0.05 -0.032,-0.237c-0,-0.187 0.001,-0.232 0.032,-0.232c0.031,-0 0.032,0.045 0.032,0.232c0,0.187 -0.001,0.237 -0.032,0.237Z" style="fill:#fefefe;fill-rule:nonzero;"/></g><g transform="matrix(937.838,0,0,937.838,1995.99,3408)"><path d="M0.201,0.007c0.129,-0 0.182,-0.07 0.182,-0.209l-0,-0.538l-0.15,0l0,0.536c0,0.073 -0.01,0.081 -0.027,0.081c-0.017,-0 -0.027,-0.009 -0.027,-0.083l-0,-0.534l-0.157,0l0,0.541c0,0.138 0.05,0.206 0.179,0.206Z" style="fill:#fefefe;fill-rule:nonzero;"/></g><g transform="matrix(937.838,0,0,937.838,2375.81,3408)"><path d="M0.024,-0l0.135,-0l-0,-0.136c-0,-0.051 -0.001,-0.168 -0.007,-0.225l0.002,-0c0.014,0.081 0.038,0.153 0.061,0.232l0.037,0.129l0.128,-0l-0,-0.74l-0.135,0l0,0.145c0,0.067 0.002,0.14 0.007,0.222l-0.002,0c-0.013,-0.075 -0.032,-0.159 -0.049,-0.232l-0.031,-0.135l-0.146,0l0,0.74Z" style="fill:#fefefe;fill-rule:nonzero;"/></g><g transform="matrix(937.838,0,0,937.838,2754.7,3408)"><path d="M0.024,-0l0.143,-0c0.146,-0 0.241,-0.042 0.241,-0.37c-0,-0.33 -0.092,-0.37 -0.241,-0.37l-0.143,0l0,0.74Zm0.158,-0.131l-0,-0.473l0.01,-0c0.051,-0 0.055,0.035 0.055,0.234c0,0.194 -0.004,0.239 -0.054,0.239l-0.011,0Z" style="fill:#fefefe;fill-rule:nonzero;"/></g><g transform="matrix(937.838,0,0,937.838,3128.9,3408)"><path d="M0.024,-0l0.158,-0l-0,-0.32l0.102,-0l-0,-0.126l-0.102,0l-0,-0.158l0.134,-0l-0,-0.136l-0.292,0l0,0.74Z" style="fill:#fefefe;fill-rule:nonzero;"/></g><g transform="matrix(937.838,0,0,937.838,3408.37,3408)"><path d="M-0.008,-0l0.148,-0l0.014,-0.138l0.068,-0l0.015,0.138l0.159,-0l-0.119,-0.743l-0.165,0l-0.12,0.743Zm0.17,-0.243c0.007,-0.059 0.014,-0.131 0.019,-0.18c0.002,-0.025 0.005,-0.049 0.007,-0.072l0.002,0c0.002,0.023 0.004,0.047 0.007,0.072c0.005,0.048 0.012,0.121 0.018,0.18l-0.053,-0Z" style="fill:#fefefe;fill-rule:nonzero;"/></g><g transform="matrix(937.838,0,0,937.838,3753.5,3408)"><path d="M0.106,0.003l0.165,-0l0.115,-0.743l-0.148,0l-0.025,0.307c-0.006,0.066 -0.013,0.143 -0.017,0.213l-0.002,-0c-0.005,-0.069 -0.011,-0.147 -0.017,-0.212l-0.026,-0.308l-0.159,0l0.114,0.743Z" style="fill:#fefefe;fill-rule:nonzero;"/></g><g transform="matrix(937.838,0,0,937.838,4108,3408)"><path d="M0.024,-0l0.288,-0l-0,-0.131l-0.13,0l-0,-0.199l0.091,-0l-0,-0.126l-0.091,0l-0,-0.148l0.128,-0l-0,-0.136l-0.286,0l0,0.74Z" style="fill:#fefefe;fill-rule:nonzero;"/></g></g></g></svg>