<?xml version="1.0" encoding="UTF-8" standalone="no"?><!DOCTYPE svg PUBLIC "-//W3C//DTD SVG 1.1//EN" "http://www.w3.org/Graphics/SVG/1.1/DTD/svg11.dtd"><svg width="100%" height="100%" viewBox="0 0 900 900" version="1.1" xmlns="http://www.w3.org/2000/svg" xmlns:xlink="http://www.w3.org/1999/xlink" xml:space="preserve" xmlns:serif="http://www.serif.com/" style="fill-rule:evenodd;clip-rule:evenodd;stroke-linejoin:round;stroke-miterlimit:2;"><rect id="favicon-v2" x="0" y="0" width="900" height="900" style="fill:none;"/><clipPath id="_clip1"><rect x="0" y="0" width="900" height="900"/></clipPath><g clip-path="url(#_clip1)"><path d="M900,0l-900,0l0,900l900,-0l0,-900Zm-2.833,2.833l-0,894.334c-0,-0 -894.334,-0 -894.334,-0c0,-0 0,-894.334 0,-894.334c55.066,0 894.334,0 894.334,0l-0,0Z" style="fill:#5a5a5a;"/><rect x="0" y="0" width="900" height="900" style="fill:#ec1d24;"/><g transform="matrix(1,0,0,1,-1210.65,-2572.58)"><g transform="matrix(1041.67,0,0,1041.67,1332,3408)"><path d="M0.024,-0l0.158,-0l-0,-0.32l0.102,-0l-0,-0.126l-0.102,0l-0,-0.158l0.134,-0l-0,-0.136l-0.292,0l0,0.74Z" style="fill:#fefefe;fill-rule:nonzero;"/></g><g transform="matrix(1041.67,0,0,1041.67,1635.12,3408)"><path d="M0.024,-0l0.158,-0l-0,-0.32l0.102,-0l-0,-0.126l-0.102,0l-0,-0.158l0.134,-0l-0,-0.136l-0.292,0l0,0.74Z" style="fill:#fefefe;fill-rule:nonzero;"/></g></g></g></svg>