<?xml version="1.0" standalone="no"?>
<!DOCTYPE svg PUBLIC "-//W3C//DTD SVG 20010904//EN"
 "http://www.w3.org/TR/2001/REC-SVG-20010904/DTD/svg10.dtd">
<svg version="1.0" xmlns="http://www.w3.org/2000/svg"
 width="900.000000pt" height="900.000000pt" viewBox="0 0 900.000000 900.000000"
 preserveAspectRatio="xMidYMid meet">
<metadata>
Created by potrace 1.14, written by Peter Selinger 2001-2017
</metadata>
<g transform="translate(0.000000,900.000000) scale(0.100000,-0.100000)"
fill="#000000" stroke="none">
<path d="M0 4500 l0 -4500 4500 0 4500 0 0 4500 0 4500 -4500 0 -4500 0 0
-4500z m6031 3850 l1509 0 0 -705 0 -705 -700 0 -700 0 0 -825 0 -825 530 0
530 0 0 -655 0 -655 -530 0 -530 0 0 -1665 0 -1665 -825 0 -825 0 0 3145 0
3145 -690 0 -690 0 0 -825 0 -825 530 0 530 0 0 -655 0 -655 -530 0 -530 0 0
-1665 0 -1665 -825 0 -825 0 0 3850 0 3850 1518 2 c834 2 1523 2 1530 1 8 -2
693 -3 1523 -3z"/>
</g>
</svg>
